<?xml version="1.0" encoding="utf-8"?>
<!-- Generator: Adobe Illustrator 27.5.0, SVG Export Plug-In . SVG Version: 6.00 Build 0)  -->
<svg version="1.1" id="Layer_1" xmlns="http://www.w3.org/2000/svg" xmlns:xlink="http://www.w3.org/1999/xlink" x="0px" y="0px"
	 viewBox="0 0 3000 2000" style="enable-background:new 0 0 3000 2000;" xml:space="preserve">
<g>
	<rect style="fill:#FFFFFF;" width="3000" height="2000"/>
	<path style="fill:#E9F3FE;" d="M2804.429,1524.35c0,0,234.173-438.888-41.469-648.344
		c-153.803-116.873-363.799,90.639-519.751-223.059c-90.757-182.554-408.357-237.964-567.177,11.268
		c-158.818,249.233-295.349,247.975-404.932,201.872c-125.67-52.872-180.879-212.01-377.594-178.357
		c-227.357,38.895-196.916,274.69-364.451,233.631c-323.078-79.18-562.443,373.183-339.117,606.103L2804.429,1524.35z"/>
	<g>
		<path style="fill:#82B378;" d="M1539.311,1258.486c0,0-45.59,33.901-54.48,31.846c-8.889-2.057,33.32-36.597,33.32-36.597
			c-15.884-7.637-65.258-2.849-65.258-2.849s-16.446,53.034-24.556,48.854c-8.11-4.182,16.958-46.217,16.958-46.217
			c-17.69-1.066-39.387,12.068-39.387,12.068c-29.703,23.458,1.952,60.389,1.952,60.389s-6.096,18.257-24.854,34.881
			c0,0-26.79,19.813-28.651,55.213l4.863,0.436c0,0,7.708-32.972,21.716-48.565c0.545-0.564,1.337-1.375,2.313-2.36
			c2.283-2.113,3.882-3.701,4.956-4.88c6.971-6.698,16.605-15.229,21.248-16.058c0,0-0.233-0.854-0.199-2.335
			c0.063,0.748,0.129,1.517,0.199,2.335c1.589,18.665,37.8,34.966,60.077,38.317c22.277,3.353,15.391-5.805,7.715-19.382
			s-31.967-19.654-37.508-25.906c-5.543-6.253,5.916-6.268,19.338-0.137c13.422,6.13,15.26,22.476,36.791,32.787
			c21.532,10.312,53.931-25.418,53.931-25.418c-17.16-0.871-41.666-19.507-40.778-25.209c0.887-5.703,41.597,9.837,48.556,10.583
			c6.96,0.746,22.793-7.911,25.244-35.943C1585.264,1266.307,1539.311,1258.486,1539.311,1258.486z"/>
		<g>
			<path style="fill:#A8D29F;" d="M1297.181,1279.536c0,0,50.355-28.198,26.856-66.47c0,0-18.799-23.499-38.941-29.542
				c0,0,10.743,57.07,0,58.413s-7.385-64.455-7.385-64.455s-53.042-25.514-73.856-23.499c0,0,32.899,55.727,22.158,54.384
				c-10.743-1.343-47.67-57.741-47.67-57.741s-54.384-10.07-63.112,22.157c-8.729,32.227,5.371,48.341,13.428,50.354
				c8.056,2.015,59.754,1.344,58.412,8.057c-1.343,6.715-36.256,17.456-55.727,11.414c0,0,21.484,53.042,49.684,50.356
				c28.199-2.687,36.927-20.143,54.384-21.486c17.456-1.342,30.213,3.357,21.484,8.058c-8.727,4.7-38.27,1.54-52.37,13.526
				c-14.1,11.987-25.513,19.373,0.671,24.744c26.186,5.371,73.184,2.015,82.583-18.129
				C1297.181,1279.536,1297.181,1279.536,1297.181,1279.536z"/>
			<path style="fill:#82B378;" d="M1310.609,1328.549c-14.1-26.185-13.428-49.013-13.428-49.013
				c-16.114-51.026-157.11-96.683-157.11-96.683c179.266,72.512,147.71,116.824,147.71,116.824
				c4.831,2.819,12.074,16.256,17.101,26.566c0.716,1.754,1.85,4.182,3.534,7.479h0c0.683,1.49,1.229,2.71,1.605,3.561
				c9.23,23.095,4.341,62.976,4.341,62.976l5.594,1.503C1332.353,1361.568,1310.609,1328.549,1310.609,1328.549z"/>
		</g>
		<g>
			<path style="fill:#A8D29F;" d="M1377.292,1240.646c0,0-66.378-37.173-35.401-87.619c0,0,24.781-30.977,51.332-38.942
				c0,0-14.161,75.229,0,76.999c14.16,1.77,9.735-84.965,9.735-84.965s69.918-33.631,97.354-30.977c0,0-43.367,73.459-29.207,71.689
				c14.161-1.771,62.838-76.114,62.838-76.114s71.688-13.274,83.193,29.207c11.506,42.481-7.08,63.723-17.7,66.378
				c-10.62,2.654-78.769,1.77-76.998,10.621c1.771,8.85,47.791,23.01,73.458,15.045c0,0-28.321,69.918-65.493,66.378
				s-48.678-26.552-71.688-28.321c-23.01-1.77-39.826,4.425-28.32,10.621c11.505,6.195,50.447,2.029,69.033,17.83
				c18.585,15.801,33.631,25.536-0.886,32.617c-34.516,7.079-96.469,2.654-108.859-23.897
				C1377.292,1240.646,1377.292,1240.646,1377.292,1240.646z"/>
			<path style="fill:#82B378;" d="M1584.392,1113.2c0,0-185.858,60.183-207.099,127.446c0,0,0.885,30.091-17.701,64.607
				c0,0-28.662,43.525-12.322,96.508l7.374-1.981c0,0-6.446-52.569,5.721-83.013c0.498-1.121,1.217-2.729,2.117-4.693l0,0
				c2.22-4.347,3.716-7.547,4.659-9.859c6.626-13.59,16.175-31.303,22.543-35.019
				C1389.683,1267.196,1348.086,1208.784,1584.392,1113.2z"/>
		</g>
		<path style="fill:#F1A34F;" d="M1245.032,1386.633c0,71.81,58.213,130.023,130.024,130.023
			c71.81,0,130.023-58.214,130.023-130.023H1245.032z"/>
		<path style="fill:#F1A34F;" d="M1490.834,1508.664h-231.556c-8.859,0-16.042,7.182-16.042,16.041l0,0h263.64l0,0
			C1506.876,1515.846,1499.693,1508.664,1490.834,1508.664z"/>
		<path style="fill:#D86713;" d="M1506.043,1390.621h-263.292c-1.101,0-1.995-0.894-1.995-1.995l0,0
			c0-1.102,0.894-1.994,1.995-1.994h263.292c1.101,0,1.994,0.893,1.994,1.994l0,0
			C1508.037,1389.728,1507.144,1390.621,1506.043,1390.621z"/>
	</g>
	<g>
		<path style="fill:#4A75CB;" d="M1788.35,1524.705h505.694c15.854,0,28.826-12.973,28.826-28.828V484.606
			c0-15.854-12.972-28.827-28.826-28.827H1788.35c-15.854,0-28.826,12.973-28.826,28.827v1011.271
			C1759.523,1511.732,1772.495,1524.705,1788.35,1524.705z"/>
		<path style="fill:#699FF0;" d="M1733.743,1524.705h505.692c15.854,0,28.827-12.973,28.827-28.828V484.606
			c0-15.854-12.973-28.827-28.827-28.827h-505.692c-15.855,0-28.828,12.973-28.828,28.827v1011.271
			C1704.915,1511.732,1717.888,1524.705,1733.743,1524.705z"/>
		<g>
			<path style="fill:#4A75CB;" d="M1904.029,507.636h146.443c3.134,0,5.697-2.563,5.697-5.697l0,0c0-3.134-2.563-5.698-5.697-5.698
				h-146.443c-3.133,0-5.696,2.564-5.696,5.698l0,0C1898.333,505.072,1900.896,507.636,1904.029,507.636z"/>
			<path style="fill:#4A75CB;" d="M2076.481,507.636L2076.481,507.636c3.133,0,5.697-2.563,5.697-5.697l0,0
				c0-3.134-2.564-5.698-5.697-5.698l0,0c-3.135,0-5.698,2.564-5.698,5.698l0,0C2070.783,505.072,2073.347,507.636,2076.481,507.636
				z"/>
		</g>
		<path style="fill:#4A75CB;" d="M2016.36,1465.644c0-20.295-16.453-36.747-36.748-36.747s-36.747,16.452-36.747,36.747
			s16.452,36.748,36.747,36.748S2016.36,1485.938,2016.36,1465.644z"/>
	</g>
	<rect x="1752.997" y="540.54" style="fill:#FFFFFF;" width="468.373" height="864.591"/>
	<path style="fill:#4A75CB;" d="M822.391,566.459h453.332c14.213,0,25.842,11.628,25.842,25.841v906.563
		c0,14.214-11.629,25.843-25.842,25.843H822.391c-14.213,0-25.843-11.629-25.843-25.843V592.3
		C796.548,578.087,808.177,566.459,822.391,566.459z"/>
	<path style="fill:#699FF0;" d="M871.344,566.459h453.332c14.213,0,25.842,11.628,25.842,25.841v906.563
		c0,14.214-11.629,25.843-25.842,25.843H871.344c-14.214,0-25.843-11.629-25.843-25.843V592.3
		C845.501,578.087,857.13,566.459,871.344,566.459z"/>
	<rect x="863.563" y="643.072" style="fill:#FFFFFF;" width="467.826" height="776.481"/>
	<path style="fill:#4A75CB;" d="M1040.74,602.729h131.28c2.809,0,5.107,2.299,5.107,5.108c0,2.809-2.299,5.107-5.107,5.107h-131.28
		c-2.81,0-5.107-2.299-5.107-5.107C1035.633,605.028,1037.931,602.729,1040.74,602.729z"/>
	<path style="fill:#4A75CB;" d="M1017.425,602.729c2.81,0,5.107,2.299,5.107,5.108c0,2.809-2.298,5.107-5.107,5.107
		c-2.81,0-5.107-2.299-5.107-5.107C1012.317,605.028,1014.615,602.729,1017.425,602.729z"/>
	
		<ellipse transform="matrix(0.2298 -0.9732 0.9732 0.2298 -593.6645 2206.9622)" style="fill:#4A75CB;" cx="1097.477" cy="1478.545" rx="26.156" ry="26.156"/>
	<g>
		<path style="fill:#163560;" d="M320.571,1524.08c0,0-42.218,1.533-48.468,0c-0.264-1.175-8.063-50.406-8.063-50.406l-6.493-45.529
			c-0.908-6.363,6.702-10.57,11.425-6.211c2.321,2.143,4.473,5.254,5.967,9.764c5.314,16.036,20.975,41.871,44.213,48.611
			C343.598,1487.4,320.571,1524.08,320.571,1524.08z"/>
		<path style="fill:#E49963;" d="M540.743,1295.82l-4.151,1.475c0,0-10.872-18.389-33.091-10.953c0,0-8.875,3.715-3.61,8.571
			c5.264,4.858,3.962,2.343,11.232,9.331c7.267,6.988,17.192,10.492,24.028,8.134l7.58-2.669L540.743,1295.82z"/>
		<path style="fill:#163560;" d="M727.972,1449.802c0,0-154.91-118.366-198.979-119.659s-187.018,194.36-187.018,194.36h53.529
			c0,0,94.321-50.197,127.502-97.901c3.338-4.799,10.476-4.581,13.575,0.373c17.15,27.41,61.997,94.636,90.992,97.528
			C658.704,1527.609,727.972,1449.802,727.972,1449.802z"/>
		<path style="fill:#FFB27D;" d="M713.143,1127.717c0,0,0.977,7.757,2.236,17.33c1.677,12.439,3.912,27.882,5.38,32.704l46.61,11.81
			l3.425-33.892c0,0-11.672-23.409-11.602-56.533L713.143,1127.717z"/>
		<g>
			<path style="fill:#82B378;" d="M753.681,1198.261l-66.23,81.129l-23.16,28.37c0,0-41.482,7.769-63.258,9.661
				c-15.716,1.358-65.882-5.043-65.882-5.043l1.441-15.083c0,0,31.132-13.24,45.921-16.344c15.088-3.16,53.203-11.763,53.203-11.763
				c14.412-5.241,69.176-76.036,69.176-76.036L753.681,1198.261z"/>
		</g>
		<path style="fill:#A8D29F;" d="M796.892,1487.963l-135.448-11.054c0,0-0.375-2.715-1.001-7.272
			c-0.195-1.408-0.305-2.883-0.344-4.421c-0.31-13.529,5.011-31.771,7.298-49.702c1.514-11.836,1.707-23.536-1.913-33.658
			c-4.169-11.675-6.089-33.84-6.935-54.912c-1.067-26.387-0.453-51.047-0.465-51.222c-1.358-16.807,2.637-35.469,9.334-53.212
			c13.213-34.99,37.849-54.801,49.424-66.549c0,0,14.137,3.49,50.882-7.533c1.091-0.328,4.243,4.296,5.646,6.991
			c0,0,15.902,20.122,22.438,69.191C801.656,1268.533,796.892,1487.963,796.892,1487.963z"/>
		<path style="fill:#82B378;" d="M763.001,1244.746c-0.266,6.16-54.766,179.646-48.089,192.444
			c32.32,61.913-49.153,34.019-53.574,18.053c1.513-11.836,7.766-63.266,4.146-73.388c-4.169-11.675-6.089-33.84-6.935-54.912
			c1.363-7.687,4.557-15.624,8.869-23.297C687.669,1300.479,765.03,1196.982,763.001,1244.746z"/>
		<g>
			<path style="fill:#373480;" d="M492.102,1278.58l16.799-11.536c0.142-0.099,0.294-0.174,0.45-0.226l0.013-0.01l3.169-1.293
				l15.457,48.811l-13.519,10.943l-2.429,1.057c-0.002,0.001-0.004,0.002-0.006,0.004l-0.033,0.014l-0.002-0.005
				c-1.098,0.446-2.494-0.26-3.079-1.692l-17.498-42.882C490.923,1280.537,491.209,1279.193,492.102,1278.58z"/>
			<path style="fill:#575B9F;" d="M531.442,1311.438l-16.031,13.42c-1.13,0.945-2.891,0.253-3.566-1.403l-17.498-42.882
				c-0.502-1.228-0.216-2.571,0.678-3.185l16.799-11.537c1.146-0.786,2.783-0.063,3.427,1.511l16.729,40.998
				C532.45,1309.513,532.229,1310.778,531.442,1311.438z"/>
			<polygon style="fill:#E2E7F2;" points="528.838,1306.181 513.05,1319.397 497.181,1280.508 513.726,1269.146 			"/>
			<path style="fill:#373480;" d="M522.611,1315.124c-0.22-0.781,0.093-1.614,0.698-1.862c0.605-0.247,1.273,0.187,1.493,0.968
				c0.22,0.781-0.093,1.615-0.698,1.862C523.5,1316.338,522.831,1315.905,522.611,1315.124z"/>
			<polygon style="fill:#CED4EA;" points="499.575,1281.231 513.009,1271.751 526.94,1305.148 513.258,1315.814 			"/>
			<polygon style="fill:#BCC5DD;" points="503.089,1283.242 512.501,1276.601 522.26,1299.998 512.675,1307.471 			"/>
		</g>
		<path style="fill:#E49963;" d="M538.792,1319.478l-8.52-0.28c0,0-8.492-17.606-27.928-9.258c0,0-7.797,4.068-3.498,8.609
			c4.299,4.54,3.297,2.124,9.219,8.67c5.923,6.546,14.289,9.539,20.272,6.9l6.637-2.979L538.792,1319.478z"/>
		<path style="fill:#A8D29F;" d="M750.411,1156.26c0,0-33.254,14.043-50.523,44.051c-11.508,19.997-31.327,54.016-43.27,74.486
			c-6.359,10.9-16.985,18.643-29.311,21.354l-40.354,8.879l-56.681,14.168c0,0-1.342,2.401-1.015,6.332
			c0.465,5.575,4.113,6.696,4.113,6.696s52.919,12.737,71.757,14.154c46.414,3.489,68.414-2.595,75.233-5.102
			c1.522-0.56,2.885-1.371,4.142-2.394c7.108-5.776,34.38-28.625,48.736-50.452c13.969-21.237,52.484-76.422,52.484-76.422
			L750.411,1156.26z"/>
		<path style="fill:#1C468A;" d="M797.821,1435.563c0,0,13.356,88.94-27.601,88.94c-40.955,0-450.782,0-450.782,0
			s-12.448-8.406-13.322-24.42c-0.926-16.985,4.44-23.003,4.44-23.003s161.371-5.616,194.135-16.596
			C668.908,1405.454,797.821,1435.563,797.821,1435.563z"/>
		<path style="fill:#E8945B;" d="M713.143,1127.717c0,0,0.977,7.757,2.236,17.33c43.063-12.561,43.813-45.911,43.813-45.911
			L713.143,1127.717z"/>
		<path style="fill:#FFB27D;" d="M706.367,1130.201c0,0,52.344,1.551,52.808-31.062c0.464-32.61,7.533-54.375-25.868-56.743
			c-33.4-2.37-40.071,9.981-42.874,20.829C687.63,1074.073,692.763,1128.957,706.367,1130.201z"/>
		<path style="fill:#2B478B;" d="M760.109,1111.913c0,0-5.53-0.924-4.639-8.542s0.881-17.575-5.314-15.72
			c-6.193,1.855-6.501,6.815-9.047,3.919c-2.545-2.896-2.591-15.096-21.02-15.946c-18.43-0.849-25.919,5.565-34.489,1.798
			c-8.57-3.768-9.022-16.74-9.022-16.74s2.438,4.633,6.119,6.105c0,0-14.299-19.556,2.256-32.965
			c16.554-13.41,33.432-4.632,43.013-4.051c21.106,1.277,34.741,2.543,41.636,16.413
			C776.498,1060.054,773.653,1098.563,760.109,1111.913z"/>
	</g>
	<g>
		<polygon style="fill:#82B378;" points="2076.801,349.954 2217.247,391.162 2131.467,312.526 2123.617,332.62 2087.83,333.889 		
			"/>
		<polygon style="fill:#A8D29F;" points="2217.247,391.162 2106.813,312.365 1990.701,289.557 		"/>
		<polygon style="fill:#A8D29F;" points="2131.467,312.526 2217.247,391.162 2158.244,279.125 		"/>
	</g>
	<g>
		<path style="fill:#233862;" d="M2470.017,563.269c9.274-5.675,24.086,1.108,24.086,1.108c-5.121-7.198-23.809-4.845-23.809-4.845
			c37.222-7.919,44.991,15.877,45.633,18.105c26.998-24.365,70.224,27.572,70.224,27.572l-62.028,82.222
			c0,0-5.658-13.081-13.133-8.998c-11.655,6.367-34.194-19.396-26.992-53.291c0.779-3.664,1.716-7.006,2.754-10.081
			c-2.422,1.061-5.168,1.914-7.736,1.914c-6.783,0-17.025-17.302-18.41-23.115C2459.22,588.047,2460.743,568.944,2470.017,563.269z"
			/>
		<path style="fill:#FFB27D;" d="M2647.439,921.2c39.286-14.475,77.126-81.704,77.126-81.704l-12.391-8.674
			c-10.319,15.097-56.747,44.081-56.747,44.081c-1.06-12.721-2.599-24.264-4.497-34.717c-12.889-71.052-42.373-92.1-50.288-96.567
			c-1.277-0.727-1.997-1.01-1.997-1.01s0.026,0.522,0.088,1.514c0.113,2.139,0.365,6.446,0.777,12.352
			C2602.581,800.464,2614.612,933.304,2647.439,921.2z"/>
		<path style="fill:#FFB27D;" d="M2457.563,993.749c19.409-43.527,28.693-55.835,29.019-69.53
			c0.257-10.83-5.083-22.515-15.456-51.168c-2.442-6.752-4.128-13.695-5.166-20.713c-8.204-55.238,23.739-114.951,43.592-119.019
			c5.524-1.46,14.888-21.411,14.772-53.56l2.486,0.489l41.805,8.277c0,0-0.952,13.156-0.98,25.551
			c-0.027,10.328,0.596,20.117,2.935,21.35c3.011,0.272,4.786,0.451,4.786,0.451s34.856,48.409,37.787,93.431
			c2.933,45.022-27.913,64.581,0.233,154.55C2642.11,1075.746,2446.841,1017.801,2457.563,993.749z"/>
		<path style="fill:#E8945B;" d="M2568.614,688.525c0,0-0.952,13.156-0.98,25.551c-23.393-0.66-35.758-22-40.824-33.828
			L2568.614,688.525z"/>
		<path style="fill:#233862;" d="M2522.492,675.697c0,0-12.26-19.37-15.202-35.934c-2.1-11.824,3.922-55.656,47.969-49.344
			c0,0,12.793,1.261,24.817,9.383c9.563,6.459,23.365,20.402,7.933,58.651l-4.008,12.92L2522.492,675.697z"/>
		<path style="fill:#FFB27D;" d="M2576.427,700.262c0,0-55.349,0.913-55.387-33.564c-0.037-34.475-7.207-57.577,28.13-59.618
			c35.336-2.04,42.217,11.107,45.028,22.612C2597.009,641.196,2590.822,699.136,2576.427,700.262z"/>
		<path style="fill:#163560;" d="M2506.57,1411.424c13.923,55.393,34.886,97.859,34.886,97.859l18.252-1.266
			c0,0-8.95-42.58-8.437-100.112c0.361-40.222,5.336-87.758,21.229-133.145c54.612-155.971,45.786-269.484,45.786-269.484
			l-102.7,12.012l-4.784,0.562c-0.427,47.165-1.645,111.203-2.71,161.278c-0.942,45.034-1.77,78.77-1.77,78.77
			C2486.578,1300.422,2493.749,1360.446,2506.57,1411.424z"/>
		<path style="fill:#1C468A;" d="M2447.649,1402.58c5.906,63.02,31.906,103.771,31.906,103.771l8.718,6.341
			c0,0,8.253-44.4,14.092-97.225c5.564-50.208,13.192-103.337,21.819-119.554c34.249-64.313,44.559-307.101,44.559-307.101
			l-104.126-5.164c-10.472,17.605-15.038,46.481-16.122,79.312c-2.739,82.86,16.74,190.905,19.65,206.532
			c0,0.01,0,0.019,0.009,0.037c0.229,1.208-0.123,2.397-0.685,3.491C2446.755,1314.032,2443.759,1360.95,2447.649,1402.58z"/>
		<path style="fill:#233862;" d="M2535.967,652.663c-23.256,5.981-33.345-0.251-33.345-0.251s17.84-14.171,21.542-38.908
			c0,0,10.215-32.244,49.763-7.975c3.625-3.109,10.085-5.358,18.625,4.993c12.831,15.552,1.414,43.044,1.414,43.044
			c-5.268,0.615-6.508-17.458-9.268-26.237c-2.03-6.46-8.69-13.052-12.069-16.086c-1.112,4.086-12.267,42.723-40.046,55.563
			c0,0,12.798-11.355,22.208-27.12C2549.404,645.803,2543.063,650.838,2535.967,652.663z"/>
		<path style="fill:#FFB27D;" d="M2376.446,1052.441c4.216-2.662,8.295-10.832,9.75-13.974
			c12.872-32.044,27.7-94.178,32.605-105.618c1.789-4.165,5.212-23.824,9.702-49.152c8.056-45.443,19.517-109.148,30.996-134.391
			c1.38-3.024,5.326-5.602,10.5-7.761c15.626-6.534,42.344-9.264,42.344-9.264l-13.953,60.423l-4.09,17.719
			c0,0-12.421,43.77-22.046,79.541c-4.652,17.272-8.637,32.69-10.263,40.394c-4.984,23.663-59.796,114.607-59.796,114.607
			l-0.017-0.005l0.013,0.006c0,0-1.661,1.107-3.599,6.645c-1.938,5.536-17.44,34.882-24.085,34.882s-8.028-9.967-9.413-16.334
			C2363.712,1063.792,2371.187,1055.764,2376.446,1052.441z"/>
		<path style="fill:#FFB27D;" d="M2712.175,830.822c-0.006-1.709-1.433-26.431,2.968-31.625
			c4.399-5.193,13.386-12.579,16.212-12.352c2.827,0.227,13.879,14.913,10.557,26.168c-3.323,11.254-17.346,26.482-17.346,26.482
			L2712.175,830.822z"/>
		<g>
			<path style="fill:#575B9F;" d="M2691.993,800.58l25.62,7.679c0.851,0.255,1.746-0.227,2.001-1.077l14.642-48.852
				c0.255-0.851-0.228-1.745-1.078-2l-25.619-7.679c-0.851-0.255-1.746,0.227-2.001,1.078l-14.642,48.852
				C2690.661,799.43,2691.144,800.326,2691.993,800.58z"/>
			<path style="fill:#373480;" d="M2698.65,802.576l23.239,6.965c1.508,0.452,3.096-0.404,3.548-1.912l13.928-46.471
				c0.452-1.508-0.403-3.097-1.911-3.548l-23.239-6.965c-1.507-0.452-3.096,0.403-3.548,1.911l-13.928,46.471
				C2696.287,800.535,2697.144,802.124,2698.65,802.576z"/>
		</g>
		<path style="fill:#FFB27D;" d="M2447.649,1402.58c5.906,63.02,31.906,103.771,31.906,103.771l8.877,8.085
			c0,0,8.094-46.145,13.933-98.969C2496.212,1415.914,2469.087,1416.903,2447.649,1402.58z"/>
		<path style="fill:#575B9F;" d="M2472.036,891.857c-6.164,1.655-26.023,5.383-48.754-7.143
			c9.377-45.767,22.711-109.928,36.065-135.352c0.646-1.227,1.778-2.377,3.291-3.461c-0.086-0.104-0.134-0.162-0.134-0.162
			c12.517-9.102,38.102-11.898,38.102-11.898s7.885,34.981,12.868,39.547c4.984,4.565,77.239,12.04,78.903,3.737
			c1.588-7.932-18.787-38.783-20.308-41.503c-0.077-0.124,3.284,0.254,3.284,0.254c8.236,1.085,14.047,1.912,18.24,2.625
			c8.208,1.408,13.224,4.917,13.695,5.462c9.726,7.366,32.586,29.987,41.527,84.501c0,0-11.305,15.497-27.23,20.068
			c-0.418,0.12-0.842,0.224-1.266,0.328c2.768,46.198,19.773,123.078,13.648,167.552c-5.887,42.762-95.843,31.824-113.676,27.858
			c-12.222-2.711-21.676-15.617-28.429-38.614c-2.234,16.073-7.247,34.915-18.489,36.084c-18.394,1.902-26.003-1.274-28.219-8.246
			c-0.637-2.007-0.828-4.813-0.646-8.321C2445.709,1001.158,2463.979,944.568,2472.036,891.857z"/>
		<path style="fill:#D9935C;" d="M2506.57,1411.424c13.923,55.393,34.886,97.859,34.886,97.859l18.252-1.266
			c0,0-8.95-42.58-8.437-100.112C2545.079,1411.025,2532.297,1414.192,2506.57,1411.424z"/>
		<g>
			<path style="fill:#233862;" d="M2530.945,1524.588h11.653c3.902-0.614,6.784-1.744,10.787-2.267
				c6.08-0.798,8.878,1.693,9.435,2.267c0.075,0.074,0.108,0.117,0.108,0.117h49.499c1.245-1.777,0.05-5.897-1.122-8.929
				c-0.789-2.06-2.508-3.621-4.634-4.235c-5.249-1.52-15.597-2.874-25.073-11.453c-5.332-4.816-25.746-17.715-25.746-17.715
				l-0.107-0.024c-0.448,0.008-2.583,0.664-11.869,8.504c-4.8,4.044-12.98-5.714-12.98-5.714s-1.536,1.271-2.683,3.638
				c-0.922,1.868-1.595,4.435-1.063,7.6c0.739,4.459-1.644,12.747-3.546,18.354c-1.153,3.397-2.126,5.806-2.126,5.806
				S2520.922,1523.334,2530.945,1524.588z"/>
			<path style="fill:#466AA5;" d="M2528.213,1488.776c2.782,1.96,8.654,5.822,12.55,6.328c5.257,0.69,15.09-12.731,15.09-12.731
				l-0.107-0.024c-0.448,0.008-2.583,0.664-11.869,8.504c-4.8,4.044-12.98-5.714-12.98-5.714S2529.359,1486.409,2528.213,1488.776z"
				/>
			<path style="fill:#466AA5;" d="M2530.945,1524.588h11.653c3.902-0.614,6.784-1.744,10.787-2.267
				c6.08-0.798,8.878,1.693,9.435,2.267c0.075,0.074,0.108,0.117,0.108,0.117h49.499c1.245-1.777,0.05-5.897-1.122-8.929
				c-1.503-1.337-1.926,5.805-2.758,6.943c-0.829,1.138-40.379,0.415-42.662-1.246c-2.284-1.661-9.136-4.568-18.688-2.284
				c-8.313,1.985-20.563-3.105-23.595-4.46c-1.153,3.397-2.126,5.806-2.126,5.806S2520.922,1523.334,2530.945,1524.588z"/>
		</g>
		<g>
			<path style="fill:#233862;" d="M2468.765,1524.588h11.652c3.903-0.614,6.785-1.744,10.788-2.267
				c6.079-0.798,8.878,1.693,9.436,2.267c0.074,0.074,0.107,0.117,0.107,0.117h49.499c1.245-1.777,0.05-5.897-1.122-8.929
				c-0.789-2.06-2.508-3.621-4.635-4.235c-5.248-1.52-15.597-2.874-25.072-11.453c-5.332-4.816-25.746-17.715-25.746-17.715
				l-0.108-0.024c-0.448,0.008-2.582,0.664-11.867,8.504c-4.801,4.044-12.98-5.714-12.98-5.714s-1.537,1.271-2.684,3.638
				c-0.922,1.868-1.595,4.435-1.063,7.6c0.738,4.459-1.645,12.747-3.547,18.354c-1.154,3.397-2.126,5.806-2.126,5.806
				S2458.74,1523.334,2468.765,1524.588z"/>
			<path style="fill:#466AA5;" d="M2466.032,1488.776c2.782,1.96,8.654,5.822,12.549,6.328c5.258,0.69,15.091-12.731,15.091-12.731
				l-0.108-0.024c-0.448,0.008-2.582,0.664-11.867,8.504c-4.801,4.044-12.98-5.714-12.98-5.714S2467.179,1486.409,2466.032,1488.776
				z"/>
			<path style="fill:#466AA5;" d="M2468.765,1524.588h11.652c3.903-0.614,6.785-1.744,10.788-2.267
				c6.079-0.798,8.878,1.693,9.436,2.267c0.074,0.074,0.107,0.117,0.107,0.117h49.499c1.245-1.777,0.05-5.897-1.122-8.929
				c-1.503-1.337-1.927,5.805-2.757,6.943c-0.831,1.138-40.379,0.415-42.664-1.246c-2.284-1.661-9.136-4.568-18.687-2.284
				c-8.313,1.985-20.563-3.105-23.595-4.46c-1.154,3.397-2.126,5.806-2.126,5.806S2458.74,1523.334,2468.765,1524.588z"/>
		</g>
		<path style="fill:#373480;" d="M2444.511,1025.174c12.354-4.129,28.209-15.105,47.25-39.709
			c50.408-65.15,4.28-141.714-1.901-143.141c-6.183-1.427-17.823,49.533-17.823,49.533
			C2463.979,944.568,2445.709,1001.158,2444.511,1025.174z"/>
		<path style="fill:#FFB27D;" d="M2733.567,788.518c0,0-8.087-7.336-14.689-0.398c-6.604,6.937,2.5,19.332,9.16,22.285
			c6.662,2.953,8.874,4.625,8.874,4.625L2733.567,788.518z"/>
		<path style="fill:#FFFFFF;" d="M2565.614,679.796c0,0,0.956,4.063,11.063,3.437c0,0,8.486-0.524,8.227-4.989
			C2584.904,678.243,2576.676,675.065,2565.614,679.796z"/>
	</g>
	<g>
		<path style="fill:#699FF0;" d="M2144.762,1213.825l0.073-161.835c0.001-5.602-4.577-10.188-10.181-10.19l-294.858-0.133
			c-5.604-0.003-10.188,4.578-10.19,10.181l-0.073,161.833c-0.003,5.602,4.577,10.189,10.181,10.19l294.861,0.133
			C2140.175,1224.007,2144.759,1219.426,2144.762,1213.825z"/>
		<rect x="1829.589" y="1068.826" style="fill:#365DA4;" width="315.231" height="36.056"/>
		<rect x="1853.302" y="1114.932" style="fill:#AFCDFB;" width="192.875" height="28.347"/>
		<path style="fill:#AFCDFB;" d="M1892.621,1194.206l0.007-20.664c0.003-4.249-3.442-7.696-7.691-7.7l-23.954-0.01
			c-4.25-0.002-7.701,3.443-7.701,7.693l-0.011,20.663c0.001,4.25,3.444,7.696,7.693,7.7l23.957,0.011
			C1889.17,1201.901,1892.617,1198.455,1892.621,1194.206z"/>
		<g>
			<path style="opacity:0.2;fill:#AFCDFB;" d="M1928.602,1169.502l189.467,0.084c1.649,0.002,2.983-1.332,2.982-2.98l0.003-2.911
				c0.001-1.645-1.333-2.98-2.979-2.981l-189.467-0.085c-1.648-0.001-2.983,1.334-2.984,2.979v2.911
				C1925.62,1168.164,1926.957,1169.501,1928.602,1169.502z"/>
			<path style="opacity:0.2;fill:#AFCDFB;" d="M1928.562,1186.145l189.534,0.086c1.629,0.002,2.947-1.316,2.949-2.945l0.002-2.776
				c0-1.629-1.318-2.949-2.947-2.949l-189.535-0.086c-1.627,0.001-2.947,1.318-2.949,2.944l0.002,2.78
				C1925.615,1184.826,1926.935,1186.146,1928.562,1186.145z"/>
			<path style="opacity:0.2;fill:#AFCDFB;" d="M2121.039,1199.316l0.001-3.146c0-1.68-1.362-3.041-3.04-3.041l-189.349-0.085
				c-1.68-0.004-3.041,1.358-3.043,3.038l-0.001,3.146c0,1.681,1.361,3.042,3.039,3.044l189.35,0.087
				C2119.674,1202.355,2121.037,1200.998,2121.039,1199.316z"/>
		</g>
	</g>
	<g>
		<path style="fill:#4A75CB;" d="M1232.407,1107.75h-269.86c-9.98,0-18.07-8.091-18.07-18.07V922.707
			c0-9.979,8.09-18.07,18.07-18.07h269.86c9.98,0,18.07,8.09,18.07,18.07v166.973
			C1250.477,1099.659,1242.387,1107.75,1232.407,1107.75z"/>
		<g>
			<rect x="957.498" y="845.614" style="fill:#82B378;" width="246.504" height="125.884"/>
			<rect x="956.185" y="843.739" style="fill:#82B378;" width="246.504" height="125.884"/>
			<rect x="954.435" y="842.114" style="fill:#82B378;" width="246.504" height="125.884"/>
			<g>
				<rect x="952.748" y="840.571" style="fill:#A8D29F;" width="246.504" height="125.884"/>
				<path style="fill:#82B378;" d="M962.391,850.014v107h227.218v-107H962.391z M1181,948.722H971v-90.418h210V948.722z"/>
				<path style="fill:#82B378;" d="M962.391,850.014v24.335c1.748,0.504,3.589,0.789,5.5,0.789c10.954,0,19.833-8.879,19.833-19.833
					c0-1.836-0.269-3.604-0.736-5.291H962.391z"/>
				<path style="fill:#82B378;" d="M1189.609,849.909h-24.335c-0.504,1.748-0.789,3.589-0.789,5.5
					c0,10.954,8.879,19.833,19.833,19.833c1.835,0,3.604-0.269,5.291-0.735V849.909z"/>
				<path style="fill:#82B378;" d="M1189.609,957.014h-24.335c-0.504-1.749-0.789-3.59-0.789-5.5
					c0-10.954,8.879-19.833,19.833-19.833c1.835,0,3.604,0.269,5.291,0.736V957.014z"/>
				<path style="fill:#82B378;" d="M962.391,956.909v-24.335c1.748-0.504,3.589-0.789,5.5-0.789c10.954,0,19.833,8.88,19.833,19.833
					c0,1.835-0.269,3.604-0.736,5.291H962.391z"/>
				<path style="fill:#82B378;" d="M1102.667,903.513c0,14.728-11.939,26.667-26.667,26.667s-26.667-11.939-26.667-26.667
					c0-14.727,11.939-26.667,26.667-26.667S1102.667,888.786,1102.667,903.513z"/>
			</g>
		</g>
		<g>
			<path style="fill:#E2810E;" d="M1164.417,867.163c-27.761,3.469-47.454,28.786-43.985,56.547
				c3.469,27.761,28.786,47.453,56.547,43.983c27.761-3.469,47.453-28.786,43.984-56.546
				C1217.495,883.386,1192.177,863.694,1164.417,867.163z"/>
			<path style="fill:#FFB93E;" d="M1160.032,867.711c-27.761,3.469-47.453,28.786-43.983,56.547
				c3.469,27.761,28.786,47.453,56.546,43.983c27.761-3.469,47.453-28.785,43.983-56.546
				C1213.109,883.935,1187.793,864.242,1160.032,867.711z"/>
			<g>
				<path style="fill:#FFA412;" d="M1172.112,964.365c-25.251,3.155-48.366-14.824-51.521-40.075
					c-3.156-25.252,14.825-48.359,40.076-51.515c25.25-3.155,48.358,14.818,51.514,40.069
					C1215.335,938.096,1197.362,961.209,1172.112,964.365z M1161.007,875.504c-23.747,2.968-40.656,24.698-37.688,48.445
					c2.967,23.747,24.706,40.655,48.452,37.688c23.746-2.967,40.648-24.705,37.681-48.451
					C1206.484,889.439,1184.753,872.537,1161.007,875.504z"/>
			</g>
			<g>
				<path style="fill:#FFA412;" d="M1174.353,931.074c-0.006-1.002-0.153-1.884-0.44-2.646c-0.288-0.762-0.755-1.451-1.4-2.068
					c-0.646-0.616-1.479-1.184-2.496-1.703c-1.019-0.518-2.262-1.023-3.729-1.515c-2.524-0.867-4.816-1.778-6.876-2.732
					c-2.062-0.954-3.829-2.058-5.301-3.314c-1.472-1.256-2.618-2.729-3.438-4.418c-0.819-1.689-1.236-3.704-1.25-6.042
					c-0.014-2.028,0.335-3.88,1.044-5.555s1.728-3.137,3.056-4.386c1.328-1.25,2.921-2.268,4.779-3.055
					c1.858-0.787,3.943-1.295,6.253-1.524l-0.047-7.661l6.166-0.038l0.048,7.768c2.211,0.273,4.219,0.845,6.023,1.717
					c1.803,0.871,3.339,2.008,4.607,3.408c1.267,1.401,2.248,3.059,2.94,4.976c0.692,1.917,1.046,4.069,1.062,6.455l-11.137,0.069
					c-0.019-2.863-0.667-5.001-1.947-6.414c-1.281-1.411-2.987-2.111-5.12-2.098c-1.156,0.006-2.152,0.175-2.983,0.502
					c-0.833,0.327-1.517,0.773-2.053,1.336c-0.536,0.565-0.932,1.229-1.183,1.995c-0.252,0.766-0.375,1.589-0.37,2.473
					s0.139,1.682,0.401,2.396c0.26,0.714,0.708,1.374,1.341,1.978c0.633,0.604,1.471,1.171,2.515,1.702
					c1.044,0.53,2.339,1.077,3.884,1.641c2.497,0.915,4.77,1.855,6.819,2.821c2.048,0.966,3.808,2.083,5.281,3.35
					c1.472,1.269,2.618,2.747,3.438,4.436c0.82,1.69,1.236,3.692,1.251,6.007c0.014,2.1-0.341,3.988-1.063,5.662
					c-0.722,1.676-1.747,3.125-3.075,4.351c-1.329,1.226-2.934,2.215-4.818,2.966c-1.884,0.752-3.981,1.241-6.292,1.471l0.044,7.122
					l-6.127,0.039l-0.043-7.088c-2.135-0.201-4.199-0.654-6.195-1.357c-1.996-0.704-3.768-1.725-5.318-3.064
					c-1.549-1.338-2.793-3.031-3.731-5.078c-0.937-2.046-1.416-4.502-1.434-7.365l11.137-0.069c0.011,1.694,0.257,3.107,0.74,4.237
					c0.482,1.13,1.123,2.034,1.924,2.708c0.801,0.676,1.709,1.148,2.726,1.416c1.016,0.268,2.051,0.399,3.104,0.392
					c1.207-0.007,2.266-0.169,3.176-0.485s1.672-0.75,2.285-1.304c0.613-0.552,1.071-1.206,1.375-1.959
					C1174.21,932.775,1174.358,931.958,1174.353,931.074z"/>
			</g>
		</g>
		<path style="fill:#699FF0;" d="M1212.407,1123.631h-249.86c-9.98,0-18.07-8.09-18.07-18.069V938.589
			c0-9.98,8.09-18.07,18.07-18.07h249.86c9.98,0,18.07,8.09,18.07,18.07v166.973
			C1230.477,1115.541,1222.387,1123.631,1212.407,1123.631z"/>
		<path style="fill:#4A75CB;" d="M1238.977,1049.825h-88.75c-15.326,0-27.75-12.424-27.75-27.75l0,0
			c0-15.326,12.424-27.75,27.75-27.75h88.75V1049.825z"/>
		<circle style="fill:#E9F3FE;" cx="1150.227" cy="1022.075" r="21.75"/>
	</g>
	<g>
		
			<ellipse transform="matrix(0.999 -0.0453 0.0453 0.999 -32.9671 90.4995)" style="fill:#A8D29F;" cx="1979.613" cy="772.387" rx="67.56" ry="67.56"/>
		<path style="fill:#FFFFFF;" d="M1940.252,777.042l22.064,22.065c1.207,1.207,2.844,1.885,4.55,1.885h3.216
			c1.707,0,3.344-0.678,4.55-1.885l44.342-44.342c4.054-4.054,1.183-10.984-4.55-10.984h-2.086c-1.682,0-3.296,0.658-4.498,1.833
			l-36.319,35.501c-2.521,2.464-6.555,2.441-9.048-0.051l-13.121-13.122c-1.224-1.224-2.889-1.903-4.619-1.884l0,0
			C1939.033,766.12,1936.222,773.012,1940.252,777.042z"/>
	</g>
	<g>
		<g>
			<path style="fill:#A8D29F;" d="M699.937,797.652c-1.902,0.244-3.788,0.478-5.655,0.705c-2.136,0.258-4.077-1.264-4.336-3.4
				c-0.257-2.127,1.25-4.06,3.372-4.332c0.009-0.001,0.019-0.002,0.027-0.003c3.363-0.408,6.784-0.843,10.262-1.307
				c0.007-0.001,0.015-0.002,0.022-0.003c2.123-0.272,4.071,1.222,4.355,3.349c0.285,2.132-1.213,4.091-3.346,4.377
				C703.06,797.248,701.493,797.453,699.937,797.652z M714.918,795.606c-2.105,0.269-4.044-1.199-4.349-3.307
				c-0.308-2.13,1.168-4.105,3.298-4.414c3.369-0.487,6.787-0.999,10.247-1.535c2.16-0.34,4.118,1.129,4.446,3.256
				c0.33,2.126-1.128,4.117-3.255,4.444c-3.487,0.54-6.93,1.056-10.323,1.546C714.962,795.6,714.94,795.604,714.918,795.606z
				 M683.987,799.529c-0.028,0.004-0.056,0.007-0.084,0.011c-3.534,0.376-7.034,0.721-10.403,1.023
				c-2.144,0.192-4.037-1.389-4.229-3.532c-0.194-2.143,1.404-4.015,3.531-4.228c3.327-0.3,6.785-0.641,10.277-1.012
				c2.139-0.228,4.058,1.323,4.287,3.461C687.589,797.364,686.083,799.261,683.987,799.529z M735.475,792.432
				c-2.072,0.266-3.999-1.158-4.337-3.236c-0.347-2.123,1.093-4.126,3.217-4.473c3.37-0.552,6.78-1.123,10.226-1.714
				c2.09-0.365,4.136,1.061,4.498,3.182c0.364,2.122-1.06,4.135-3.181,4.499c-3.466,0.594-6.895,1.169-10.286,1.724
				C735.565,792.421,735.519,792.427,735.475,792.432z M663.29,801.377c-0.075,0.01-0.15,0.018-0.227,0.023
				c-3.588,0.252-7.109,0.456-10.465,0.612c-2.149,0.099-3.972-1.563-4.072-3.713c-0.099-2.149,1.564-3.967,3.713-4.072
				c3.294-0.151,6.753-0.353,10.28-0.6c2.146-0.15,4.008,1.468,4.158,3.615C666.823,799.312,665.322,801.117,663.29,801.377z
				 M755.974,788.92c-2.046,0.262-3.96-1.127-4.327-3.179c-0.378-2.12,1.031-4.143,3.15-4.521c3.37-0.603,6.771-1.222,10.206-1.86
				c2.119-0.4,4.149,1.004,4.542,3.119c0.393,2.116-1.003,4.149-3.12,4.542c-3.451,0.641-6.871,1.265-10.257,1.87
				C756.103,788.902,756.039,788.912,755.974,788.92z M642.533,802.315c-0.143,0.018-0.288,0.029-0.435,0.032
				c-3.651,0.059-7.197,0.052-10.539-0.021c-2.151-0.047-3.857-1.83-3.81-3.98c0.047-2.151,1.825-3.86,3.981-3.81
				c3.243,0.071,6.689,0.078,10.24,0.019c2.152-0.035,3.925,1.68,3.959,3.832C645.962,800.391,644.476,802.065,642.533,802.315z
				 M776.424,785.128c-2.024,0.26-3.927-1.099-4.316-3.131c-0.405-2.113,0.979-4.155,3.091-4.559
				c3.368-0.646,6.765-1.308,10.186-1.983c2.13-0.42,4.161,0.956,4.577,3.067c0.417,2.112-0.956,4.16-3.067,4.577
				c-3.437,0.677-6.846,1.341-10.227,1.99C776.585,785.106,776.504,785.118,776.424,785.128z M796.827,781.101
				c-2.007,0.257-3.901-1.076-4.31-3.09c-0.427-2.109,0.936-4.165,3.045-4.593c3.366-0.683,6.756-1.378,10.167-2.087
				c2.124-0.441,4.169,0.915,4.608,3.022c0.437,2.107-0.917,4.169-3.022,4.607c-3.425,0.711-6.827,1.409-10.204,2.095
				C797.016,781.074,796.921,781.089,796.827,781.101z M817.189,776.873c-1.992,0.255-3.878-1.057-4.302-3.056
				c-0.446-2.105,0.897-4.174,3.001-4.621c3.365-0.713,6.749-1.44,10.151-2.177c2.086-0.457,4.177,0.88,4.632,2.984
				c0.456,2.103-0.88,4.177-2.982,4.632c-3.415,0.74-6.809,1.466-10.182,2.184C817.4,776.842,817.293,776.859,817.189,776.873z
				 M621.766,801.812c-0.255,0.033-0.519,0.041-0.787,0.021c-3.768-0.277-7.34-0.668-10.616-1.159
				c-2.128-0.318-3.594-2.301-3.274-4.429c0.318-2.128,2.3-3.596,4.428-3.277c3.083,0.463,6.461,0.83,10.037,1.094
				c2.146,0.158,3.756,2.026,3.598,4.173C625.014,800.113,623.563,801.582,621.766,801.812z M837.513,772.47
				c-1.978,0.253-3.856-1.04-4.295-3.024c-0.464-2.102,0.864-4.182,2.965-4.645c3.361-0.744,6.74-1.496,10.135-2.259
				c2.107-0.473,4.184,0.85,4.655,2.948c0.471,2.1-0.848,4.185-2.947,4.654c-3.404,0.766-6.792,1.52-10.163,2.264
				C837.746,772.435,837.629,772.455,837.513,772.47z M857.801,767.913c-1.967,0.252-3.838-1.025-4.289-2.997
				c-0.479-2.099,0.833-4.187,2.931-4.666c3.358-0.767,6.732-1.543,10.12-2.328c2.101-0.489,4.189,0.819,4.675,2.915
				c0.486,2.096-0.819,4.19-2.915,4.676c-3.396,0.786-6.778,1.565-10.146,2.334C858.052,767.875,857.925,767.896,857.801,767.913z
				 M878.059,763.219c-1.955,0.25-3.821-1.014-4.282-2.975c-0.493-2.095,0.806-4.192,2.901-4.685
				c3.357-0.788,6.725-1.586,10.107-2.391c2.098-0.497,4.194,0.795,4.693,2.887c0.498,2.093-0.794,4.194-2.887,4.692
				c-3.389,0.807-6.765,1.607-10.129,2.397C878.326,763.177,878.192,763.201,878.059,763.219z M601.265,798.593
				c-0.496,0.064-1.012,0.032-1.525-0.107c-3.989-1.096-7.513-2.447-10.472-4.017c-1.9-1.008-2.624-3.367-1.616-5.268
				c1.01-1.9,3.368-2.623,5.268-1.616c2.455,1.303,5.444,2.443,8.883,3.386c2.076,0.571,3.295,2.715,2.726,4.79
				C604.1,797.322,602.778,798.399,601.265,798.593z M898.287,758.4c-1.946,0.249-3.807-1.002-4.277-2.952
				c-0.505-2.092,0.782-4.197,2.873-4.701c3.355-0.81,6.719-1.625,10.095-2.449c2.086-0.515,4.198,0.771,4.708,2.861
				c0.51,2.09-0.771,4.199-2.861,4.708c-3.382,0.825-6.752,1.644-10.114,2.454C898.569,758.356,898.428,758.382,898.287,758.4z
				 M918.488,753.471c-1.937,0.248-3.794-0.991-4.273-2.932c-0.516-2.089,0.759-4.201,2.849-4.716
				c3.353-0.828,6.713-1.662,10.083-2.502c2.082-0.517,4.203,0.75,4.722,2.839c0.521,2.089-0.75,4.203-2.838,4.722
				c-3.374,0.842-6.741,1.676-10.1,2.505C918.783,753.425,918.635,753.452,918.488,753.471z M938.664,748.438
				c-1.929,0.247-3.781-0.981-4.268-2.913c-0.526-2.087,0.74-4.204,2.827-4.73c3.351-0.845,6.708-1.694,10.07-2.549
				c2.088-0.53,4.206,0.731,4.736,2.815c0.53,2.086-0.73,4.207-2.816,4.737c-3.368,0.856-6.731,1.707-10.087,2.553
				C938.972,748.39,938.818,748.419,938.664,748.438z M958.815,743.314c-1.922,0.246-3.77-0.972-4.265-2.897
				c-0.535-2.084,0.721-4.208,2.806-4.742c3.348-0.86,6.703-1.725,10.06-2.593c2.084-0.538,4.209,0.713,4.748,2.795
				c0.538,2.083-0.714,4.208-2.797,4.748c-3.362,0.87-6.721,1.736-10.075,2.597C959.134,743.263,958.975,743.294,958.815,743.314z
				 M978.915,738.11c-1.915,0.245-3.76-0.964-4.26-2.882c-0.544-2.082,0.703-4.21,2.786-4.752c3.341-0.873,6.685-1.75,10.032-2.63
				c2.085-0.544,4.211,0.696,4.758,2.776c0.548,2.081-0.695,4.212-2.776,4.759c-3.351,0.881-6.7,1.759-10.047,2.633
				C979.243,738.059,979.079,738.089,978.915,738.11z M583.665,788.356c-1.367,0.175-2.785-0.382-3.651-1.576
				c-0.23-0.317-0.449-0.639-0.658-0.965c-1.919-3.005-3.493-6.048-4.676-9.046c-0.791-2,0.191-4.263,2.192-5.054
				c2-0.792,4.265,0.19,5.055,2.192c1,2.532,2.345,5.128,3.997,7.712c0.126,0.197,0.259,0.392,0.397,0.584
				c1.264,1.742,0.876,4.179-0.866,5.441C584.908,788.042,584.292,788.275,583.665,788.356z M999.001,732.826
				c-1.908,0.244-3.749-0.957-4.256-2.869c-0.552-2.08,0.688-4.211,2.768-4.763c3.349-0.888,6.697-1.779,10.047-2.675
				c2.088-0.556,4.214,0.681,4.769,2.76c0.557,2.079-0.679,4.214-2.757,4.77c-3.354,0.896-6.709,1.789-10.063,2.678
				C999.34,732.771,999.171,732.804,999.001,732.826z M1019.121,727.453c-1.903,0.244-3.74-0.95-4.252-2.853
				c-0.56-2.079,0.672-4.216,2.749-4.775c3.356-0.902,6.71-1.808,10.066-2.717c2.087-0.563,4.217,0.667,4.778,2.744
				c0.563,2.077-0.665,4.216-2.742,4.777c-3.358,0.911-6.718,1.817-10.078,2.72C1019.468,727.396,1019.294,727.431,1019.121,727.453
				z M1039.224,722.009c-1.896,0.243-3.731-0.943-4.249-2.842c-0.566-2.076,0.657-4.217,2.734-4.783
				c3.343-0.912,6.684-1.825,10.023-2.741c2.073-0.57,4.219,0.652,4.788,2.727c0.569,2.076-0.652,4.219-2.728,4.789
				c-3.342,0.917-6.688,1.83-10.034,2.743C1039.581,721.95,1039.401,721.986,1039.224,722.009z M1059.275,716.508
				c-1.892,0.243-3.724-0.937-4.245-2.829c-0.573-2.074,0.645-4.22,2.719-4.792c3.342-0.922,6.68-1.846,10.014-2.771
				c2.074-0.571,4.221,0.638,4.796,2.712c0.575,2.074-0.64,4.222-2.713,4.796c-3.337,0.927-6.678,1.852-10.025,2.776
				C1059.64,716.449,1059.458,716.485,1059.275,716.508z M1079.311,710.945c-1.888,0.242-3.716-0.93-4.243-2.817
				c-0.579-2.073,0.633-4.221,2.705-4.8c3.341-0.934,6.676-1.867,10.006-2.801c2.065-0.585,4.222,0.626,4.804,2.698
				c0.582,2.072-0.627,4.223-2.699,4.804c-3.332,0.936-6.672,1.871-10.016,2.805
				C1079.684,710.884,1079.496,710.922,1079.311,710.945z M1099.331,705.325c-1.883,0.241-3.709-0.925-4.24-2.807
				c-0.584-2.071,0.621-4.224,2.691-4.809c3.34-0.942,6.673-1.886,9.999-2.829c2.071-0.591,4.224,0.615,4.812,2.684
				c0.587,2.07-0.614,4.225-2.685,4.812c-3.328,0.944-6.665,1.888-10.008,2.833C1099.709,705.262,1099.52,705.301,1099.331,705.325z
				 M1119.333,699.649c-1.878,0.241-3.702-0.92-4.237-2.797c-0.59-2.069,0.61-4.225,2.678-4.815
				c3.339-0.953,6.671-1.905,9.992-2.856c2.061-0.591,4.226,0.602,4.819,2.671c0.593,2.068-0.604,4.225-2.671,4.819
				c-3.325,0.953-6.66,1.906-10.003,2.86C1119.719,699.585,1119.525,699.625,1119.333,699.649z M576.345,769.144
				c-0.048,0.006-0.096,0.012-0.144,0.017c-2.143,0.195-4.039-1.383-4.233-3.526c-0.35-3.825-0.087-7.673,0.781-11.436
				c0.483-2.097,2.574-3.405,4.671-2.922c2.096,0.484,3.406,2.575,2.922,4.671c-0.682,2.957-0.889,5.977-0.616,8.98
				C579.918,767.021,578.415,768.879,576.345,769.144z M1139.322,693.92c-1.875,0.24-3.695-0.914-4.234-2.786
				c-0.596-2.068,0.598-4.227,2.666-4.823c3.34-0.962,6.668-1.922,9.984-2.882c2.076-0.596,4.228,0.594,4.825,2.66
				c0.598,2.067-0.594,4.228-2.66,4.826c-3.319,0.961-6.651,1.922-9.993,2.884C1139.715,693.856,1139.518,693.894,1139.322,693.92z
				 M1159.298,688.141c-1.871,0.239-3.688-0.91-4.232-2.777c-0.6-2.066,0.588-4.228,2.654-4.83c3.339-0.97,6.665-1.938,9.978-2.906
				c2.068-0.603,4.229,0.583,4.832,2.648c0.603,2.065-0.583,4.229-2.648,4.832c-3.316,0.968-6.646,1.938-9.987,2.91
				C1159.696,688.074,1159.496,688.115,1159.298,688.141z M1179.259,682.313c-1.868,0.239-3.683-0.906-4.23-2.769
				c-0.605-2.065,0.578-4.229,2.643-4.834c3.339-0.978,6.664-1.956,9.971-2.931c2.073-0.608,4.23,0.573,4.838,2.636
				c0.608,2.065-0.573,4.231-2.636,4.838c-3.311,0.976-6.638,1.953-9.98,2.934C1179.663,682.246,1179.461,682.287,1179.259,682.313z
				 M1199.206,676.439c-1.863,0.238-3.676-0.902-4.226-2.76c-0.61-2.064,0.566-4.231,2.63-4.842c3.34-0.987,6.663-1.972,9.966-2.953
				c2.064-0.61,4.232,0.564,4.843,2.626c0.614,2.062-0.562,4.23-2.625,4.843c-3.305,0.983-6.63,1.967-9.973,2.956
				C1199.617,676.37,1199.411,676.413,1199.206,676.439z M1219.143,670.519c-1.859,0.238-3.671-0.897-4.224-2.752
				c-0.614-2.062,0.559-4.232,2.621-4.847c3.342-0.996,6.661-1.988,9.96-2.975c2.058-0.618,4.232,0.555,4.848,2.616
				c0.617,2.061-0.553,4.233-2.616,4.849c-3.3,0.989-6.623,1.981-9.966,2.978C1219.56,670.449,1219.351,670.492,1219.143,670.519z
				 M580.741,749.369c-0.786,0.101-1.611-0.037-2.361-0.445c-1.888-1.033-2.582-3.4-1.55-5.288c1.676-3.067,3.799-6.139,6.313-9.129
				c1.384-1.647,3.842-1.862,5.489-0.477c1.647,1.384,1.861,3.841,0.477,5.489c-2.18,2.597-4.011,5.237-5.44,7.853
				C583.046,748.511,581.938,749.216,580.741,749.369z M1239.066,664.555c-1.856,0.238-3.666-0.893-4.223-2.745
				c-0.619-2.061,0.55-4.233,2.611-4.852c3.343-1.004,6.661-2.003,9.953-2.996c2.059-0.622,4.233,0.545,4.855,2.604
				c0.621,2.062-0.546,4.235-2.605,4.857c-3.295,0.993-6.616,1.993-9.961,2.997C1239.486,664.484,1239.275,664.528,1239.066,664.555
				z M1258.977,658.549c-1.853,0.237-3.66-0.89-4.219-2.736c-0.624-2.06,0.541-4.234,2.6-4.858c3.345-1.013,6.661-2.019,9.947-3.018
				c2.055-0.622,4.234,0.537,4.86,2.595s-0.536,4.235-2.594,4.861c-3.288,1-6.607,2.006-9.956,3.02
				C1259.403,658.477,1259.189,658.522,1258.977,658.549z M1278.877,652.5c-1.849,0.237-3.654-0.885-4.217-2.729
				c-0.628-2.057,0.531-4.234,2.59-4.862c3.349-1.021,6.664-2.035,9.942-3.039c2.054-0.626,4.236,0.528,4.866,2.585
				c0.63,2.059-0.526,4.236-2.584,4.865c-3.281,1.005-6.598,2.019-9.95,3.042C1279.309,652.428,1279.092,652.473,1278.877,652.5z
				 M1298.766,646.411c-1.845,0.236-3.649-0.881-4.214-2.721c-0.632-2.057,0.522-4.236,2.58-4.869
				c3.353-1.03,6.667-2.051,9.938-3.058c2.057-0.633,4.237,0.519,4.871,2.575c0.633,2.057-0.519,4.237-2.575,4.872
				c-3.272,1.009-6.588,2.029-9.945,3.061C1299.203,646.336,1298.984,646.383,1298.766,646.411z M593.857,733.451
				c-1.224,0.157-2.504-0.27-3.392-1.255c-1.44-1.599-1.313-4.062,0.286-5.502c2.522-2.273,5.337-4.558,8.367-6.789
				c1.734-1.275,4.171-0.905,5.448,0.827c1.275,1.733,0.906,4.172-0.827,5.448c-2.824,2.079-5.439,4.197-7.771,6.3
				C595.356,733.031,594.616,733.354,593.857,733.451z M1318.644,640.28c-1.842,0.236-3.644-0.877-4.212-2.714
				c-0.636-2.055,0.515-4.236,2.57-4.874c3.361-1.04,6.672-2.066,9.932-3.079c2.049-0.635,4.238,0.51,4.877,2.565
				c0.637,2.055-0.511,4.238-2.565,4.876c-3.261,1.013-6.575,2.041-9.939,3.082C1319.086,640.204,1318.865,640.252,1318.644,640.28z
				 M1338.513,634.108c-1.839,0.235-3.638-0.873-4.209-2.706c-0.64-2.055,0.506-4.238,2.56-4.879
				c3.372-1.051,6.681-2.084,9.927-3.099c2.058-0.644,4.241,0.5,4.882,2.555c0.643,2.054-0.501,4.239-2.555,4.882
				c-3.248,1.016-6.56,2.051-9.935,3.102C1338.96,634.031,1338.737,634.08,1338.513,634.108z M1358.372,627.896
				c-1.836,0.235-3.634-0.871-4.208-2.698c-0.645-2.053,0.497-4.239,2.551-4.884c3.387-1.063,6.696-2.104,9.923-3.121
				c2.047-0.648,4.238,0.493,4.886,2.545c0.646,2.052-0.493,4.24-2.545,4.886c-3.228,1.018-6.54,2.06-9.931,3.124
				C1358.823,627.817,1358.597,627.867,1358.372,627.896z M610.53,721.065c-1.458,0.187-2.961-0.464-3.795-1.791
				c-1.147-1.822-0.598-4.228,1.225-5.373c2.868-1.803,5.949-3.616,9.156-5.388c1.884-1.04,4.255-0.358,5.295,1.526
				c1.041,1.883,0.357,4.253-1.526,5.294c-3.081,1.701-6.034,3.439-8.779,5.164C611.612,720.809,611.075,720.996,610.53,721.065z
				 M1378.223,621.64c-1.833,0.234-3.628-0.867-4.204-2.691c-0.649-2.051,0.488-4.24,2.539-4.889
				c3.415-1.079,6.723-2.128,9.919-3.143c2.051-0.65,4.241,0.483,4.893,2.534c0.652,2.051-0.483,4.241-2.534,4.893
				c-3.199,1.016-6.51,2.065-9.928,3.146C1378.682,621.561,1378.452,621.61,1378.223,621.64z M1398.07,615.338
				c-1.83,0.234-3.622-0.863-4.202-2.683c-0.655-2.05,0.478-4.242,2.528-4.896c3.47-1.106,6.777-2.163,9.917-3.167
				c2.051-0.655,4.242,0.474,4.898,2.522c0.656,2.049-0.473,4.243-2.522,4.898c-3.143,1.007-6.454,2.064-9.927,3.171
				C1398.533,615.258,1398.3,615.309,1398.07,615.338z M628.722,710.97c-1.603,0.205-3.229-0.607-3.987-2.137
				c-0.954-1.93-0.164-4.266,1.764-5.221c3.04-1.505,6.251-3.019,9.545-4.501c1.962-0.884,4.268-0.007,5.151,1.954
				c0.884,1.963,0.008,4.269-1.954,5.152c-3.207,1.442-6.331,2.916-9.286,4.378C629.557,710.794,629.14,710.917,628.722,710.97z
				 M1417.917,608.984c-1.826,0.234-3.616-0.857-4.2-2.672c-0.658-2.048,0.468-4.244,2.517-4.901
				c3.62-1.164,6.934-2.232,9.923-3.199c2.047-0.661,4.243,0.461,4.906,2.509c0.661,2.048-0.462,4.244-2.51,4.905
				c-2.994,0.968-6.311,2.038-9.936,3.203C1418.386,608.904,1418.151,608.955,1417.917,608.984z M1437.789,602.562
				c-1.821,0.233-3.608-0.852-4.196-2.661c-0.666-2.047,0.454-4.245,2.5-4.91c6.13-1.992,9.397-3.068,9.4-3.069
				c2.039-0.671,4.246,0.438,4.92,2.483c0.672,2.043-0.439,4.245-2.483,4.918c0,0-3.276,1.078-9.428,3.078
				C1438.266,602.479,1438.026,602.532,1437.789,602.562z M647.697,702.41c-1.704,0.218-3.408-0.715-4.094-2.378
				c-0.822-1.989,0.125-4.267,2.114-5.089c3.143-1.297,6.43-2.604,9.771-3.882c2.012-0.767,4.264,0.238,5.031,2.247
				c0.769,2.009-0.237,4.262-2.247,5.031c-3.277,1.253-6.5,2.535-9.58,3.807C648.366,702.28,648.03,702.367,647.697,702.41z
				 M667.14,694.96c-1.776,0.227-3.535-0.802-4.16-2.559c-0.723-2.026,0.335-4.255,2.361-4.977c3.216-1.146,6.554-2.297,9.922-3.421
				c2.048-0.686,4.248,0.421,4.93,2.462c0.681,2.041-0.422,4.247-2.463,4.929c-3.32,1.108-6.608,2.24-9.773,3.369
				C667.687,694.859,667.414,694.925,667.14,694.96z M686.896,688.361c-1.837,0.235-3.633-0.872-4.208-2.701
				c-0.644-2.053,0.498-4.239,2.551-4.884c3.259-1.022,6.631-2.049,10.025-3.052c2.063-0.609,4.23,0.568,4.84,2.631
				c0.61,2.064-0.567,4.231-2.631,4.84c-3.354,0.992-6.685,2.006-9.902,3.017C687.347,688.283,687.121,688.333,686.896,688.361z
				 M706.87,682.449c-1.888,0.242-3.715-0.93-4.243-2.818c-0.579-2.072,0.633-4.222,2.705-4.799
				c3.324-0.929,6.724-1.852,10.107-2.747c2.083-0.549,4.211,0.69,4.761,2.771c0.55,2.081-0.69,4.212-2.77,4.761
				c-3.347,0.886-6.712,1.8-10.003,2.717C707.242,682.388,707.055,682.425,706.87,682.449z M727.016,677.122
				c-1.932,0.247-3.786-0.984-4.27-2.919c-0.522-2.087,0.746-4.203,2.834-4.725c3.345-0.837,6.768-1.671,10.174-2.478
				c2.095-0.492,4.194,0.799,4.69,2.893c0.497,2.095-0.799,4.194-2.893,4.69c-3.374,0.799-6.765,1.625-10.08,2.455
				C727.318,677.074,727.167,677.102,727.016,677.122z M747.305,672.315c-1.974,0.252-3.848-1.034-4.292-3.014
				c-0.471-2.1,0.851-4.183,2.951-4.652c3.414-0.765,6.859-1.514,10.242-2.227c2.108-0.448,4.172,0.904,4.616,3.008
				c0.444,2.106-0.903,4.173-3.009,4.617c-3.35,0.706-6.764,1.447-10.146,2.205C747.546,672.278,747.425,672.299,747.305,672.315z
				 M767.729,668.014c-2.017,0.258-3.917-1.09-4.315-3.113c-0.414-2.111,0.961-4.16,3.072-4.574
				c6.505-1.279,10.256-1.92,10.412-1.947c2.093-0.371,4.133,1.063,4.496,3.185c0.362,2.12-1.063,4.133-3.185,4.496
				c-0.037,0.006-3.823,0.655-10.221,1.912C767.902,667.989,767.816,668.002,767.729,668.014z"/>
		</g>
		<g>
			<polygon style="fill:#82B378;" points="1492.576,654.987 1628.346,553.276 1495.807,578.268 1509.003,599.506 1485.328,633.598 
							"/>
			<polygon style="fill:#A8D29F;" points="1628.346,553.276 1478.537,601.034 1376.741,692.941 			"/>
			<polygon style="fill:#A8D29F;" points="1495.807,578.268 1628.346,553.276 1483.409,530.226 			"/>
		</g>
	</g>
	<g>
		<path style="fill:#A8D29F;" d="M1262.839,1336.358H932.114c-8.375,0-15.165-6.789-15.165-15.164v-58.317
			c0-8.375,6.79-15.164,15.165-15.164h330.725c8.375,0,15.165,6.789,15.165,15.164v58.317
			C1278.004,1329.569,1271.214,1336.358,1262.839,1336.358z"/>
		<g>
			<path style="fill:#FFFFFF;" d="M980.264,1272.009c0.419,0,0.781,0.153,1.087,0.458c0.305,0.306,0.458,0.668,0.458,1.087v4.063
				c0,0.42-0.153,0.781-0.458,1.086c-0.306,0.307-0.668,0.459-1.087,0.459h-10.299v31.355c0,0.42-0.153,0.782-0.458,1.087
				c-0.306,0.306-0.668,0.458-1.087,0.458h-4.635c-0.42,0-0.782-0.152-1.087-0.458c-0.306-0.305-0.458-0.667-0.458-1.087v-31.355
				H951.94c-0.42,0-0.782-0.152-1.087-0.459c-0.306-0.305-0.458-0.666-0.458-1.086v-4.063c0-0.419,0.152-0.781,0.458-1.087
				c0.305-0.305,0.667-0.458,1.087-0.458H980.264z"/>
			<path style="fill:#FFFFFF;" d="M1003.838,1272.009c4.768,0,8.392,1.106,10.872,3.319c2.479,2.212,3.719,5.283,3.719,9.212
				c0,2.785-0.639,5.159-1.917,7.124c-1.278,1.965-3.157,3.424-5.636,4.377l7.896,14.134c0.115,0.229,0.172,0.438,0.172,0.629
				c0,0.344-0.125,0.64-0.372,0.888c-0.249,0.248-0.543,0.371-0.887,0.371h-4.864c-0.764,0-1.326-0.181-1.688-0.543
				c-0.363-0.362-0.62-0.695-0.773-1.002l-7.496-13.332h-7.61v13.332c0,0.42-0.153,0.782-0.458,1.087
				c-0.306,0.306-0.667,0.458-1.087,0.458h-4.635c-0.42,0-0.782-0.152-1.087-0.458c-0.306-0.305-0.458-0.667-0.458-1.087v-36.964
				c0-0.419,0.152-0.781,0.458-1.087c0.305-0.305,0.667-0.458,1.087-0.458H1003.838z M995.255,1290.033h8.297
				c2.174,0,3.91-0.381,5.207-1.145c1.296-0.763,1.945-2.212,1.945-4.349c0-2.136-0.649-3.566-1.945-4.292
				c-1.297-0.724-3.033-1.086-5.207-1.086h-8.297V1290.033z"/>
			<path style="fill:#FFFFFF;" d="M1044.692,1272.009c0.61,0,1.067,0.163,1.374,0.486c0.305,0.325,0.572,0.811,0.801,1.459
				l14.019,36.163c0.037,0.115,0.057,0.248,0.057,0.4c0,0.42-0.153,0.782-0.458,1.087c-0.306,0.306-0.668,0.458-1.087,0.458h-4.12
				c-0.764,0-1.297-0.162-1.603-0.486c-0.306-0.323-0.515-0.639-0.629-0.943l-2.461-6.352h-18.081l-2.46,6.352
				c-0.115,0.305-0.325,0.62-0.629,0.943c-0.306,0.324-0.84,0.486-1.602,0.486h-4.12c-0.42,0-0.782-0.152-1.087-0.458
				c-0.306-0.305-0.458-0.667-0.458-1.087c0-0.152,0.019-0.285,0.057-0.4l14.019-36.163c0.229-0.648,0.495-1.134,0.801-1.459
				c0.305-0.323,0.762-0.486,1.373-0.486H1044.692z M1047.839,1297.128l-6.294-16.308l-6.294,16.308H1047.839z"/>
			<path style="fill:#FFFFFF;" d="M1092.127,1312.063c-0.649,0-1.145-0.171-1.488-0.515c-0.343-0.343-0.592-0.61-0.744-0.802
				l-16.021-23.803v23.574c0,0.42-0.153,0.782-0.458,1.087c-0.306,0.306-0.667,0.458-1.087,0.458h-4.635
				c-0.42,0-0.782-0.152-1.087-0.458c-0.306-0.305-0.458-0.667-0.458-1.087v-36.964c0-0.419,0.152-0.781,0.458-1.087
				c0.305-0.305,0.667-0.458,1.087-0.458h4.006c0.648,0,1.145,0.172,1.488,0.516c0.343,0.343,0.591,0.61,0.744,0.801l16.021,23.803
				v-23.574c0-0.419,0.152-0.781,0.458-1.087c0.305-0.305,0.667-0.458,1.087-0.458h4.635c0.419,0,0.781,0.153,1.087,0.458
				c0.305,0.306,0.458,0.668,0.458,1.087v36.964c0,0.42-0.153,0.782-0.458,1.087c-0.306,0.306-0.667,0.458-1.087,0.458H1092.127z"/>
			<path style="fill:#FFFFFF;" d="M1120.336,1271.437c2.555,0,4.807,0.344,6.752,1.03s3.566,1.545,4.863,2.575
				c1.296,1.029,2.279,2.165,2.947,3.404c0.667,1.24,1.039,2.413,1.116,3.519c0.038,0.458-0.105,0.83-0.429,1.116
				c-0.324,0.286-0.696,0.429-1.116,0.429h-4.005c-0.649,0-1.136-0.123-1.459-0.371c-0.325-0.248-0.621-0.581-0.887-1.002
				c-0.572-0.953-1.44-1.783-2.603-2.488c-1.164-0.706-2.89-1.06-5.179-1.06c-0.992,0-1.937,0.105-2.833,0.315
				c-0.896,0.21-1.679,0.515-2.346,0.915c-0.668,0.4-1.193,0.888-1.574,1.459c-0.382,0.572-0.572,1.222-0.572,1.946
				c0,0.877,0.18,1.593,0.543,2.146c0.362,0.553,0.973,1.029,1.831,1.43c0.858,0.401,1.992,0.772,3.404,1.116
				c1.411,0.344,3.166,0.744,5.264,1.201c2.289,0.496,4.263,1.078,5.922,1.745c1.659,0.669,3.013,1.47,4.063,2.404
				c1.049,0.935,1.831,2.012,2.346,3.232c0.515,1.222,0.772,2.613,0.772,4.177c0,1.717-0.382,3.311-1.144,4.777
				c-0.764,1.47-1.851,2.729-3.262,3.777c-1.412,1.05-3.147,1.879-5.207,2.489c-2.06,0.609-4.368,0.915-6.923,0.915
				c-2.137,0-4.177-0.257-6.123-0.772c-1.946-0.515-3.672-1.259-5.178-2.231c-1.507-0.973-2.718-2.146-3.633-3.519
				c-0.916-1.374-1.431-2.898-1.545-4.578c-0.038-0.457,0.104-0.83,0.43-1.116c0.323-0.285,0.695-0.429,1.116-0.429h4.005
				c0.648,0,1.145,0.115,1.488,0.344c0.344,0.229,0.629,0.571,0.858,1.03c0.267,0.496,0.591,0.991,0.973,1.487
				c0.38,0.496,0.896,0.935,1.544,1.315c0.648,0.382,1.459,0.697,2.432,0.944c0.973,0.248,2.184,0.372,3.634,0.372
				c1.144,0,2.25-0.085,3.319-0.258c1.067-0.171,2.002-0.458,2.804-0.857c0.801-0.401,1.449-0.896,1.945-1.488
				c0.496-0.591,0.744-1.325,0.744-2.203c0-0.839-0.267-1.525-0.801-2.06c-0.535-0.534-1.345-0.991-2.432-1.373
				c-1.087-0.381-2.432-0.744-4.034-1.088c-1.602-0.343-3.453-0.781-5.55-1.315c-1.908-0.458-3.577-1.002-5.007-1.631
				c-1.431-0.63-2.613-1.402-3.547-2.317c-0.936-0.915-1.631-1.993-2.089-3.233c-0.458-1.239-0.687-2.718-0.687-4.434
				c0-1.718,0.381-3.3,1.145-4.75c0.763-1.449,1.812-2.689,3.147-3.719c1.335-1.03,2.927-1.84,4.778-2.432
				C1116.207,1271.732,1118.199,1271.437,1120.336,1271.437z"/>
			<path style="fill:#FFFFFF;" d="M1169.659,1272.009c0.419,0,0.782,0.153,1.087,0.458c0.305,0.306,0.458,0.668,0.458,1.087v4.063
				c0,0.42-0.153,0.781-0.458,1.086c-0.305,0.307-0.667,0.459-1.087,0.459h-18.253v11.101h17.109c0.419,0,0.782,0.152,1.087,0.457
				c0.305,0.306,0.458,0.668,0.458,1.087v4.063c0,0.42-0.153,0.783-0.458,1.088c-0.306,0.305-0.668,0.457-1.087,0.457h-17.109
				v13.104c0,0.42-0.153,0.782-0.458,1.087c-0.306,0.306-0.667,0.458-1.087,0.458h-4.635c-0.42,0-0.782-0.152-1.087-0.458
				c-0.306-0.305-0.458-0.667-0.458-1.087v-36.964c0-0.419,0.152-0.781,0.458-1.087c0.305-0.305,0.667-0.458,1.087-0.458H1169.659z"
				/>
			<path style="fill:#FFFFFF;" d="M1204.505,1304.91c0.419,0,0.781,0.152,1.087,0.458c0.305,0.306,0.458,0.667,0.458,1.087v4.063
				c0,0.42-0.153,0.782-0.458,1.087c-0.306,0.306-0.668,0.458-1.087,0.458h-25.12c-0.42,0-0.782-0.152-1.087-0.458
				c-0.306-0.305-0.458-0.667-0.458-1.087v-36.964c0-0.419,0.152-0.781,0.458-1.087c0.305-0.305,0.667-0.458,1.087-0.458h24.662
				c0.419,0,0.781,0.153,1.087,0.458c0.305,0.306,0.458,0.668,0.458,1.087v4.063c0,0.42-0.153,0.781-0.458,1.086
				c-0.306,0.307-0.668,0.459-1.087,0.459h-18.482v9.098h17.223c0.419,0,0.781,0.152,1.087,0.458
				c0.305,0.305,0.458,0.667,0.458,1.087v4.062c0,0.421-0.153,0.783-0.458,1.088c-0.306,0.306-0.668,0.457-1.087,0.457h-17.223
				v9.499H1204.505z"/>
			<path style="fill:#FFFFFF;" d="M1229.452,1272.009c4.768,0,8.392,1.106,10.872,3.319c2.479,2.212,3.719,5.283,3.719,9.212
				c0,2.785-0.64,5.159-1.917,7.124c-1.278,1.965-3.157,3.424-5.636,4.377l7.896,14.134c0.114,0.229,0.171,0.438,0.171,0.629
				c0,0.344-0.124,0.64-0.372,0.888c-0.249,0.248-0.543,0.371-0.887,0.371h-4.863c-0.764,0-1.326-0.181-1.688-0.543
				s-0.62-0.695-0.772-1.002l-7.496-13.332h-7.61v13.332c0,0.42-0.153,0.782-0.458,1.087c-0.306,0.306-0.667,0.458-1.087,0.458
				h-4.635c-0.42,0-0.783-0.152-1.087-0.458c-0.306-0.305-0.458-0.667-0.458-1.087v-36.964c0-0.419,0.151-0.781,0.458-1.087
				c0.305-0.305,0.667-0.458,1.087-0.458H1229.452z M1220.869,1290.033h8.297c2.174,0,3.91-0.381,5.207-1.145
				c1.296-0.763,1.945-2.212,1.945-4.349c0-2.136-0.649-3.566-1.945-4.292c-1.297-0.724-3.033-1.086-5.207-1.086h-8.297V1290.033z"
				/>
		</g>
	</g>
	<path style="fill:#2E3552;" d="M83.668,1529.573h2832.665c1.511,0,2.748-1.235,2.748-2.747l0,0c0-1.511-1.237-2.746-2.748-2.746
		H83.668c-1.511,0-2.747,1.235-2.747,2.746l0,0C80.92,1528.338,82.157,1529.573,83.668,1529.573z"/>
</g>
</svg>
